<!-- http://iconmelon.com/ -->
<svg id="svg-source" height="0" version="1.1"
  xmlns="http://www.w3.org/2000/svg" style="position:absolute; margin-left: -100%"
  xmlns:xlink="http://www.w3.org/1999/xlink">
  <g id="heart" data-iconmelon="Happy holidays:21568f5e7dc033f7562be40d58b53ca9">
    <g>
      <path fill="#B65041" d="M29.376,5.117c-3.111-2.854-8.153-2.854-11.263,0l-2.056,1.886v21.968l13.318-12.223
      C32.875,13.536,32.875,8.329,29.376,5.117z"></path>
      <path fill="#DC7A6C" d="M15.999,7.056l-2.111-1.939c-3.11-2.854-8.153-2.854-11.264,0c-3.499,3.212-3.499,8.419,0,11.63L16,29.023
      l0.058-0.053V7.003L15.999,7.056z"></path>
    </g>
  </g>
  <g id="geotag" data-iconmelon="80 icons pack:18186d30db5545dfc173a108899bc251">
    <g>
      <g>
        <path d="M16,0c-5.354,0-9.693,4.341-9.693,9.694c0,2.78,1.177,5.28,3.051,7.048L15.964,32l6.56-15.151
      c1.942-1.772,3.17-4.318,3.17-7.155C25.693,4.341,21.354,0,16,0 M16,15.054c-3.083,0-5.582-2.5-5.582-5.583
      c0-3.083,2.499-5.583,5.582-5.583s5.582,2.5,5.582,5.583C21.582,12.554,19.083,15.054,16,15.054"></path>
      </g>
    </g>
  </g>
  <g id="clock" data-iconmelon="80 icons pack:6b9429108b2a557962016da0b9fc1cf6">
    <g>
      <g>
        <path d="M16,0C7.177,0,0,7.178,0,16s7.177,16,16,16c8.822,0,15.999-7.178,15.999-16S24.822,0,16,0z M16,28.889
      C8.894,28.889,3.111,23.106,3.111,16S8.894,3.111,16,3.111c7.105,0,12.887,5.782,12.887,12.889S23.105,28.889,16,28.889z"></path>
      </g>
      <g>
        <path d="M16,9.141c0.343,0,0.622-0.278,0.622-0.622V5.018c0-0.344-0.279-0.622-0.622-0.622c-0.344,0-0.623,0.278-0.623,0.622
      v3.501C15.377,8.862,15.656,9.141,16,9.141z"></path>
      </g>
      <g>
        <path d="M16,22.859c-0.344,0-0.623,0.278-0.623,0.622v3.501c0,0.344,0.279,0.622,0.623,0.622c0.343,0,0.622-0.278,0.622-0.622
      v-3.501C16.622,23.138,16.343,22.859,16,22.859z"></path>
      </g>
      <g>
        <path d="M26.98,15.378h-3.5c-0.344,0-0.623,0.278-0.623,0.622s0.279,0.622,0.623,0.622h3.5c0.344,0,0.623-0.278,0.623-0.622
      S27.324,15.378,26.98,15.378z"></path>
      </g>
      <g>
        <path d="M8.518,15.378h-3.5c-0.344,0-0.623,0.278-0.623,0.622s0.279,0.622,0.623,0.622h3.5c0.344,0,0.623-0.278,0.623-0.622
      S8.861,15.378,8.518,15.378z"></path>
      </g>
      <g>
        <path d="M15.457,17.559c0.025,0.008,0.049,0.021,0.074,0.027c0.078,0.022,0.158,0.035,0.24,0.035c0.003,0,0.006,0.002,0.009,0.002
      h0.001l0,0c0.004,0,0.007-0.002,0.01-0.002c0.078-0.001,0.156-0.012,0.231-0.032c0.025-0.008,0.05-0.019,0.074-0.028
      c0.056-0.02,0.108-0.044,0.159-0.074c0.012-0.006,0.025-0.008,0.036-0.016l7.481-4.895c0.432-0.282,0.553-0.861,0.27-1.294
      c-0.283-0.432-0.861-0.552-1.292-0.269l-6.958,4.553l-4.922-3.376c-0.426-0.29-1.006-0.183-1.298,0.243
      c-0.291,0.426-0.183,1.007,0.242,1.298l5.438,3.729c0.013,0.009,0.026,0.011,0.039,0.019C15.345,17.511,15.4,17.536,15.457,17.559
      z"></path>
      </g>
    </g>
  </g>
  <g id="menu" data-iconmelon="80 icons pack:df4c03e14fffd286f5d0afe417c30316">
    <g>
      <g>
        <path d="M2.081,8.724h27.838C31.068,8.724,32,7.791,32,6.643c0-1.149-0.932-2.08-2.081-2.08H2.081C0.932,4.562,0,5.493,0,6.643
      C0,7.791,0.932,8.724,2.081,8.724z"></path>
      </g>
      <g>
        <path d="M29.919,13.918H2.081C0.932,13.918,0,14.851,0,15.999c0,1.15,0.932,2.081,2.081,2.081h27.838
      c1.149,0,2.081-0.931,2.081-2.081C32,14.851,31.068,13.918,29.919,13.918z"></path>
      </g>
      <g>
        <path d="M29.919,23.276H2.081C0.932,23.276,0,24.207,0,25.357c0,1.147,0.932,2.08,2.081,2.08h27.838
      c1.149,0,2.081-0.933,2.081-2.08C32,24.207,31.068,23.276,29.919,23.276z"></path>
      </g>
    </g>
  </g>
</svg>
